<!-- Created with Inkscape (http://www.inkscape.org/) -->
<svg xmlns:rdf="http://www.w3.org/1999/02/22-rdf-syntax-ns#" xmlns="http://www.w3.org/2000/svg" height="50" width="205" version="1.1" xmlns:cc="http://creativecommons.org/ns#" xmlns:dc="http://purl.org/dc/elements/1.1/">
<metadata>
<rdf:RDF>
<cc:Work rdf:about="">
<dc:format>image/svg+xml</dc:format>
<dc:type rdf:resource="http://purl.org/dc/dcmitype/StillImage"/>
<dc:title/>
</cc:Work>
</rdf:RDF>
</metadata>
<g transform="translate(0,-1002.3622)">
<rect height="48" width="48" y="1002.4" x="157" fill="#ffffff"/>
<path fill="#e6e6e6" d="m166.92,1040.2c-0.24555-0.2991-0.73649-0.4596-1.3967-0.4568h-0.57587l-3.1034-3.1286-3.1034-3.1287v-0.6219c0-1.047-0.54543-1.7626-1.5524-2.0367l-0.49519-0.1348v-3.0854-3.0854l0.44414-0.084c0.51823-0.099,1.1494-0.5965,1.4161-1.1178,0.10306-0.2014,0.18737-0.6603,0.18737-1.0196v-0.6535l4.0632-4.9081c4.0171-4.8524,4.0687-4.9082,4.5494-4.9158,0.57032-0.01,1.056-0.2398,1.4876-0.7069l0.31025-0.3358h6.8718,6.8718l0.30443,0.455c0.56225,0.8403,2.0811,1.3379,2.9893,0.9792,0.20716-0.081,0.90674,0.4537,3.8392,2.9389l3.5859,3.0389,0.0809,0.6189c0.0445,0.3402,0.21046,0.8026,0.36876,1.0273l0.28785,0.4087-1.2006,6.9156-1.2006,6.9158-0.41475,0.2476c-0.22812,0.1362-0.52982,0.4389-0.67045,0.6726l-0.25569,0.4251-11.551,2.4865c-6.3531,1.3674-11.645,2.4884-11.759,2.4907-0.11455,0-0.28495-0.09-0.37865-0.2031z"/>
<path fill="#e6e6e6" d="m167.63,1039.8c-0.20625-0.036-0.54375-0.157-0.75-0.2693-0.20625-0.1122-0.68437-0.2437-1.0625-0.2922l-0.6875-0.088-3.0312-3.0194c-3.0253-3.0135-3.0312-3.0204-3.0312-3.5598,0-0.9171-0.55784-1.6527-1.4539-1.9173l-0.55052-0.1626,0.0334-2.9318,0.0334-2.9319,0.35645-0.095c0.5526-0.1477,1.1857-0.6324,1.393-1.0665,0.10344-0.2166,0.18807-0.6591,0.18807-0.9833,0-0.5703,0.0489-0.6479,1.5037-2.3874,0.82703-0.9888,1.4696-1.7979,1.4279-1.7979s0.0997-0.1476,0.31409-0.328c0.21443-0.1805,0.37049-0.3475,0.34681-0.3712-0.0237-0.024,0.22676-0.3401,0.55656-0.7032,0.3298-0.363,1.3184-1.5037,2.1969-2.5348,1.5796-1.8539,1.6053-1.8767,2.3233-2.0625,0.4352-0.1125,0.91894-0.3505,1.2075-0.594l0.48142-0.4063h6.6022,6.6022l0.28048,0.433c0.40667,0.6279,1.1449,0.9572,2.3572,1.0514l1.0201,0.079,0.98358,0.8055c0.54096,0.4431,2.0568,1.6977,3.3685,2.7881,2.3369,1.9427,2.3882,1.9956,2.5478,2.6298,0.19279,0.7662,0.46287,1.3347,0.63404,1.3347,0.0785,0,0.0804,0.079,0.005,0.2188-0.12287,0.2282-0.40988,1.6794-0.36848,1.8631,0.0131,0.058-0.008,0.19-0.0474,0.2931-0.0987,0.2597-0.35669,1.7027-0.32756,1.8319,0.0131,0.058-0.009,0.19-0.0485,0.2931-0.0809,0.2097-0.58465,3.0655-0.64784,3.6723-0.0223,0.2146-0.0715,0.4746-0.1092,0.5777s-0.23158,1.1469-0.43081,2.3195l-0.36224,2.132-0.85038,0.8338c-0.46771,0.4586-0.89148,0.8084-0.9417,0.7774-0.0906-0.056-3.5158,0.6297-3.8752,0.7758-0.10312,0.042-0.23107,0.067-0.28433,0.055-0.10123-0.022-1.1415,0.2052-1.4657,0.3198-0.10312,0.036-0.32812,0.082-0.5,0.1022-0.45013,0.052-3.4026,0.6803-3.625,0.7718-0.10312,0.042-0.23107,0.068-0.28433,0.056-0.1026-0.022-1.1491,0.207-1.4657,0.3209-0.10312,0.037-0.3,0.077-0.4375,0.09-0.61479,0.054-3.7543,0.7546-3.7919,0.8458-0.0231,0.056-0.0886,0.073-0.14563,0.037-0.14168-0.088-3.9269,0.7081-3.9794,0.8365-0.0231,0.056-0.0942,0.07-0.15813,0.031-0.12452-0.077-1.5082,0.1935-1.6124,0.3152-0.0344,0.04-0.23125,0.044-0.4375,0.01z"/>
<path fill="#dcdcdc" d="m167.4,1040.3c-0.21397-0.04-0.56409-0.1667-0.77805-0.2827-0.21397-0.116-0.7132-0.2502-1.1094-0.2985l-0.72038-0.088-3.1241-3.1446-3.1241-3.1448-0.0586-0.6766c-0.0791-0.9126-0.54172-1.5137-1.4002-1.8192l-0.64718-0.2303,0.0347-3.0453,0.0347-3.0453,0.36504-0.098c0.55035-0.1474,1.261-0.7459,1.4642-1.2331,0.0993-0.2384,0.18074-0.6747,0.18074-0.9697,0-0.4907,0.12654-0.692,1.493-2.3753,0.82115-1.0117,1.6819-2.029,1.9127-2.261,0.23083-0.2318,0.36478-0.4219,0.29765-0.4222-0.0671-0.0004-0.0235-0.073,0.097-0.163,0.12045-0.09,1.1674-1.2718,2.3265-2.6275,1.9724-2.3071,2.1491-2.4779,2.7559-2.6636,0.75963-0.2327,1.3772-0.5539,1.6138-0.8397,0.14911-0.1799,0.96257-0.2033,7.0578-0.2025l6.8893,0.0008,0.30493,0.4487c0.42391,0.6238,1.2457,0.9873,2.4699,1.0928,1.1722,0.1007,0.63012-0.2674,5.1524,3.5005l2.8699,2.3912,0.22083,0.8174c0.12146,0.4496,0.32579,0.9303,0.45407,1.0683,0.14244,0.1532,0.19434,0.3226,0.13331,0.435-0.0975,0.1796-0.24093,0.9206-0.33506,1.7306-0.0257,0.2214-0.10533,0.6439-0.1769,0.939-0.0716,0.295-0.1613,0.792-0.19939,1.1044-0.0381,0.3124-0.21524,1.328-0.39367,2.257s-0.35414,1.9231-0.39044,2.2089-0.25919,1.5756-0.49527,2.866l-0.42926,2.3463-0.88188,0.8664c-0.48506,0.4765-0.92066,0.8424-0.96802,0.8131-0.086-0.053-3.6603,0.656-4.0288,0.7995-0.10698,0.042-0.28203,0.087-0.38902,0.1021-0.62788,0.085-1.3786,0.2375-1.4858,0.3017-0.0682,0.041-0.27113,0.091-0.45072,0.1091-0.43251,0.047-3.5207,0.691-3.7692,0.787-0.10697,0.042-0.28204,0.086-0.38902,0.1017-0.62787,0.085-1.3786,0.2376-1.4858,0.3017-0.0682,0.041-0.25459,0.088-0.41398,0.1053-0.45708,0.049-2.9604,0.5679-3.4384,0.7131-0.23779,0.072-0.63658,0.1578-0.8862,0.1904-0.88054,0.1147-3.6976,0.7392-3.8373,0.8506-0.0779,0.062-0.17149,0.083-0.20801,0.047-0.0775-0.077-1.4046,0.187-1.5955,0.3181-0.0713,0.049-0.30473,0.057-0.5187,0.017z"/>
<rect height="50" width="155" y="1002.4" x="0" fill="#217346"/>
<text style="letter-spacing:0px;word-spacing:0px;" font-weight="normal" xml:space="preserve" transform="scale(0.99816068,1.0018427)" font-stretch="normal" line-height="125%" font-size="39.8644104px" font-variant="normal" y="1023.5854" x="-0.78356838" font-family="Calibri" font-style="normal" fill="#000000"><tspan font-size="31.27155304px" y="1023.5854" x="-0.78356838" fill="#ffffff">Solver Max</tspan></text>
<text style="writing-mode:lr-tb;letter-spacing:0px;text-anchor:start;word-spacing:0px;text-align:start;" font-weight="300" xml:space="preserve" transform="scale(0.99881236,1.001189)" font-style="normal" font-stretch="normal" font-size="25.28852654px" font-variant="normal" y="1047.1481" x="-0.77397698" font-family="Calibri Light" line-height="125%" fill="#000000"><tspan style="writing-mode:lr-tb;text-anchor:start;text-align:start;" font-weight="300" font-size="20.00214005px" font-style="normal" line-height="125%" font-stretch="normal" font-variant="normal" y="1047.1481" x="-0.77397698" font-family="Calibri Light" fill="#ffffff">Optimal solutions</tspan></text>
<text style="letter-spacing:0px;word-spacing:0px;" font-weight="normal" xml:space="preserve" transform="translate(0,1002.3622)" font-stretch="normal" line-height="125%" font-size="40px" font-variant="normal" y="73.599998" x="230.39999" font-family="Calibri" font-style="normal" fill="#000000"><tspan x="230.39999" y="73.599998"/></text>
<text style="letter-spacing:0px;word-spacing:0px;" font-weight="normal" xml:space="preserve" transform="translate(0,1002.3622)" font-stretch="normal" line-height="125%" font-size="40px" font-variant="normal" y="63" x="186" font-family="Calibri" font-style="normal" fill="#000000"><tspan x="186" y="63"/></text>
<text style="letter-spacing:0px;word-spacing:0px;" font-weight="normal" xml:space="preserve" transform="translate(0,1002.3622)" font-stretch="normal" line-height="125%" font-size="40px" font-variant="normal" y="23.876404" x="272.47192" font-family="Segoe UI" font-style="normal" fill="#000000"><tspan x="272.47192" y="23.876404"/></text>
<rect transform="matrix(-0.64278761,0.76604444,-0.76604444,-0.64278761,0,0)" height="2" width="50" y="-778.57" x="633.89" fill="#999999"/>
<rect height="2" width="50" y="1009.2" x="155.69" fill="#999999"/>
<rect transform="matrix(0.70710678,0.70710678,-0.70710678,0.70710678,0,0)" height="2" width="50" y="618.15" x="839.69" fill="#999999"/>
<rect transform="matrix(0.9781476,-0.20791169,0.20791169,0.9781476,0,0)" height="2" width="50" y="1052.1" x="-63.732" fill="#999999"/>
<rect transform="matrix(0.17364818,-0.98480775,0.98480775,0.17364818,0,0)" height="2" width="50" y="368.16" x="-1002.2" fill="#999999"/>
<rect transform="matrix(0.76604444,0.64278761,-0.64278761,0.76604444,0,0)" height="2" width="50" y="653.95" x="773.49" fill="#999999"/>
<rect transform="matrix(0,1,-1,0,0,0)" height="2" width="50" y="-157" x="1002.4" fill="#4d4d4d"/>
<rect height="2" width="50" y="1050.4" x="155" fill="#4d4d4d"/>
<path d="m170.75,19.844a2.0938,2.0938,0,1,1,-4.1875,0,2.0938,2.0938,0,1,1,4.1875,0z" transform="matrix(0.95522388,0,0,0.95522388,6.2617588,991.25722)" fill="#aa0000"/>
<path d="m170.75,19.844a2.0938,2.0938,0,1,1,-4.1875,0,2.0938,2.0938,0,1,1,4.1875,0z" transform="matrix(0.95522388,0,0,0.95522388,-4.0379559,1003.4986)" fill="#aa0000"/>
<path d="m170.75,19.844a2.0938,2.0938,0,1,1,-4.1875,0,2.0938,2.0938,0,1,1,4.1875,0z" transform="matrix(0.95522388,0,0,0.95522388,-4.0379559,1013.6632)" fill="#aa0000"/>
<path d="m170.75,19.844a2.0938,2.0938,0,1,1,-4.1875,0,2.0938,2.0938,0,1,1,4.1875,0z" transform="matrix(0.95522388,0,0,0.95522388,4.6461993,1022.307)" fill="#aa0000"/>
<path d="m170.75,19.844a2.0938,2.0938,0,1,1,-4.1875,0,2.0938,2.0938,0,1,1,4.1875,0z" transform="matrix(0.95522388,0,0,0.95522388,31.10746,1016.779)" fill="#aa0000"/>
<path d="m170.75,19.844a2.0938,2.0938,0,1,1,-4.1875,0,2.0938,2.0938,0,1,1,4.1875,0z" transform="matrix(0.95522388,0,0,0.95522388,34.112665,999.83048)" fill="#aa0000"/>
<path d="m170.75,19.844a2.0938,2.0938,0,1,1,-4.1875,0,2.0938,2.0938,0,1,1,4.1875,0z" transform="matrix(1.4328358,0,0,1.4328358,-56.638338,981.77961)" fill="#217346"/>
</g>
</svg>
